<?xml version="1.0" standalone="no"?>
<!DOCTYPE svg PUBLIC "-//W3C//DTD SVG 20010904//EN"
 "http://www.w3.org/TR/2001/REC-SVG-20010904/DTD/svg10.dtd">
<svg version="1.0" xmlns="http://www.w3.org/2000/svg"
 width="705.000000pt" height="146.000000pt" viewBox="0 0 705.000000 146.000000"
 preserveAspectRatio="xMidYMid meet">

<g transform="translate(0.000000,146.000000) scale(0.100000,-0.100000)"
fill="#000000" stroke="none">
<path d="M6441 1167 c-44 -22 -59 -64 -67 -180 l-7 -107 -28 0 c-24 0 -29 -4
-29 -25 0 -21 5 -25 30 -25 l30 0 0 -217 c0 -209 -1 -218 -22 -240 l-21 -23
87 0 87 0 -20 26 c-20 25 -21 39 -21 240 l0 214 70 0 c68 0 70 1 70 25 0 24
-2 25 -70 25 l-70 0 0 89 c0 111 7 149 32 162 30 16 76 -7 98 -50 l19 -36 1
51 c0 48 -2 51 -35 67 -42 20 -100 22 -134 4z"/>
<path d="M6793 1170 c-37 -15 -56 -56 -64 -143 -4 -45 -8 -96 -8 -114 -1 -27
-5 -32 -28 -35 -20 -2 -28 -9 -28 -23 0 -14 8 -21 28 -23 l27 -3 0 -219 c0
-213 -1 -220 -22 -240 l-22 -20 88 0 87 0 -20 26 c-20 25 -21 39 -21 240 l0
214 70 0 c68 0 70 1 70 25 0 24 -2 25 -70 25 l-70 0 0 94 c0 110 12 154 46
162 32 8 72 -19 89 -59 l14 -32 1 51 c0 48 -2 51 -35 67 -38 18 -96 21 -132 7z"/>
<path d="M1735 1154 c-22 -8 -46 -16 -53 -19 -9 -3 -7 -10 8 -25 19 -19 20
-32 20 -367 0 -342 0 -347 -22 -370 l-21 -23 88 0 88 0 -22 24 c-20 21 -22 31
-19 127 2 79 6 104 16 104 8 0 51 -47 96 -105 99 -127 130 -150 200 -150 l51
0 -33 27 c-34 26 -242 279 -242 293 0 12 171 171 197 183 38 17 26 27 -32 27
-47 0 -55 -3 -55 -19 0 -11 -41 -58 -97 -111 l-98 -93 -3 257 c-2 195 -5 256
-15 255 -6 0 -30 -7 -52 -15z"/>
<path d="M4755 1154 c-22 -8 -46 -16 -53 -19 -9 -3 -7 -10 8 -25 19 -19 20
-32 20 -364 0 -332 -1 -344 -21 -370 l-20 -26 88 0 c74 1 85 3 71 14 -27 20
-38 61 -38 145 0 70 9 101 31 101 3 0 40 -44 82 -99 111 -144 141 -166 223
-159 l39 3 -32 20 c-17 11 -81 83 -142 159 l-110 139 85 81 c48 45 99 88 115
97 37 21 28 29 -33 29 -41 0 -48 -3 -48 -19 0 -11 -42 -58 -102 -114 l-103
-96 -3 260 c-1 142 -6 259 -10 258 -4 0 -25 -7 -47 -15z"/>
<path d="M195 874 c-22 -8 -46 -17 -54 -19 -11 -4 -9 -10 7 -26 21 -19 22 -28
22 -223 0 -191 -1 -205 -21 -230 l-20 -26 80 0 c45 0 81 3 81 6 0 4 -8 13 -17
20 -16 11 -18 34 -21 186 -2 150 0 178 15 207 40 77 122 97 187 47 51 -38 58
-75 54 -264 -3 -142 -5 -165 -20 -176 -10 -7 -18 -16 -18 -20 0 -3 36 -6 80
-6 44 0 80 2 80 5 0 3 -9 14 -20 25 -18 18 -20 33 -20 183 0 179 13 229 64
263 36 23 101 22 134 -3 48 -35 56 -66 60 -221 4 -166 -1 -204 -30 -232 l-22
-20 89 0 88 0 -19 21 c-17 19 -20 43 -24 203 -6 195 -12 219 -67 270 -26 25
-90 46 -137 46 -46 0 -107 -32 -135 -71 l-27 -37 -29 35 c-32 40 -95 72 -143
73 -37 0 -97 -23 -124 -47 -17 -15 -18 -14 -18 15 0 36 0 36 -55 16z"/>
<path d="M1249 879 c-26 -4 -67 -16 -93 -27 -45 -20 -46 -22 -46 -66 l0 -45
50 49 c47 48 51 50 105 50 88 0 137 -37 155 -116 l7 -31 -91 -27 c-177 -53
-249 -110 -249 -198 0 -80 59 -123 169 -123 62 0 77 4 122 32 l52 32 0 -29 0
-30 62 0 61 0 -21 23 c-20 22 -22 34 -23 168 0 216 -12 261 -80 312 -31 22
-118 35 -180 26z m181 -323 c0 -80 -1 -83 -32 -113 -18 -17 -43 -36 -55 -42
-62 -31 -165 6 -171 63 -6 49 7 74 52 105 45 31 184 83 198 75 4 -3 8 -42 8
-88z"/>
<path d="M2930 873 c-76 -22 -76 -22 -53 -38 19 -13 21 -27 25 -178 4 -144 7
-169 27 -211 33 -66 85 -99 167 -104 55 -4 69 -1 109 22 25 15 45 31 45 36 0
6 5 10 10 10 6 0 10 -13 10 -30 l0 -30 61 0 60 0 -20 26 c-20 25 -21 39 -21
271 0 192 -3 244 -12 241 -7 -3 -36 -13 -65 -22 l-51 -17 24 -24 c23 -23 24
-29 24 -172 0 -121 -3 -154 -18 -183 -52 -104 -198 -107 -247 -4 -15 32 -19
74 -24 229 l-6 191 -45 -13z"/>
<path d="M3726 875 c-25 -7 -54 -19 -64 -28 -25 -23 -32 -21 -32 8 0 24 -3 25
-60 25 -63 0 -73 -7 -40 -28 19 -12 20 -23 20 -361 0 -337 -1 -349 -21 -375
l-20 -26 82 0 82 0 -19 21 c-16 18 -19 40 -23 162 l-3 141 23 -17 c13 -10 44
-27 68 -39 118 -55 273 32 312 175 18 66 6 168 -24 220 -60 101 -171 150 -281
122z m113 -49 c67 -35 121 -136 121 -226 0 -182 -171 -281 -282 -162 -30 32
-38 50 -43 97 -11 86 0 207 21 240 39 60 122 82 183 51z"/>
<path d="M5481 878 c-136 -20 -224 -126 -224 -270 0 -165 131 -282 296 -264
151 16 250 125 250 276 0 176 -137 285 -322 258z m127 -57 c73 -37 115 -114
115 -211 0 -188 -163 -288 -299 -185 -83 63 -111 212 -60 313 47 92 154 129
244 83z"/>
<path d="M2384 862 c-94 -45 -144 -132 -144 -251 1 -117 45 -192 138 -238 49
-24 69 -28 142 -28 75 0 93 4 153 32 l67 32 0 45 c0 47 -14 62 -25 27 -9 -30
-73 -74 -128 -88 -60 -15 -124 -4 -178 32 -39 25 -89 111 -89 152 l0 23 216 0
217 0 -7 53 c-10 78 -53 156 -106 191 -39 26 -54 30 -130 33 -68 3 -93 0 -126
-15z m185 -37 c39 -20 78 -69 91 -113 18 -65 26 -62 -165 -62 -169 0 -175 1
-175 20 0 27 26 89 48 114 48 54 140 73 201 41z"/>
<path d="M5962 863 l-52 -16 26 -23 25 -24 -3 -204 c-3 -184 -5 -206 -22 -225
l-19 -21 83 0 83 0 -19 21 c-17 19 -19 41 -22 205 l-3 184 47 30 c53 33 89 38
120 16 19 -14 22 -13 37 20 17 34 17 35 -9 44 -51 20 -108 12 -152 -20 l-42
-30 0 30 c0 34 -4 35 -78 13z"/>
<path d="M4100 140 c0 -19 7 -20 265 -20 258 0 265 1 265 20 0 19 -7 20 -265
20 -258 0 -265 -1 -265 -20z"/>
</g>
</svg>
